<svg version="1.1" id="Layer_1" xmlns="http://www.w3.org/2000/svg" xmlns:xlink="http://www.w3.org/1999/xlink" x="0px" y="0px"
	 width="100%" viewBox="0 0 352 208" enable-background="new 0 0 352 208" xml:space="preserve">
<path fill="#fff" opacity="1.000000" stroke="none" 
	d="
M153.999908,187.349426 
	C137.510117,187.345688 121.520302,187.360611 105.530556,187.332321 
	C94.053612,187.311996 85.542847,181.240097 82.091026,170.686951 
	C78.900650,160.933105 82.175598,150.805313 91.281036,144.355103 
	C108.401794,132.226898 125.732193,120.394768 142.968369,108.429359 
	C158.015671,97.983475 173.050354,87.519417 188.096817,77.072327 
	C193.068771,73.620178 195.939331,69.146095 195.770813,62.835472 
	C195.546127,54.421787 191.122955,48.998104 182.895828,47.512012 
	C176.509354,46.358402 169.859131,50.853680 167.292526,58.059193 
	C164.669189,65.423988 161.849182,67.661201 155.608887,67.328247 
	C149.477859,67.001122 144.991547,61.291294 146.073578,55.192436 
	C149.049393,38.419228 164.252991,26.527063 182.555969,26.656105 
	C199.330536,26.774372 213.599060,39.024014 216.421829,55.610046 
	C218.993210,70.719025 214.838470,83.227913 202.439468,92.664009 
	C201.935135,93.047821 201.549500,93.587601 200.613800,94.578835 
	C206.065216,98.446594 211.273605,102.197105 216.538116,105.867111 
	C234.842468,118.627495 253.207428,131.301407 271.464050,144.129593 
	C279.675232,149.899261 283.444794,157.906555 281.611786,167.909180 
	C279.746063,178.090424 273.379059,184.381378 263.373566,186.836761 
	C261.152344,187.381836 258.752380,187.328506 256.434509,187.330444 
	C222.456329,187.358765 188.478119,187.349716 153.999908,187.349426 
M242.657898,149.889954 
	C223.507996,136.613007 204.310425,123.403770 185.260300,109.985176 
	C182.446732,108.003334 180.582047,108.026321 177.814362,109.964272 
	C153.682587,126.861534 129.447281,143.610931 105.249916,160.414597 
	C103.914658,161.341873 102.085732,162.111633 102.586845,164.184769 
	C103.121590,166.397095 105.039856,166.628754 106.957695,166.635986 
	C108.123085,166.640366 109.288460,166.655014 110.453842,166.655029 
	C157.570038,166.655380 204.686218,166.654785 251.802414,166.653091 
	C253.300766,166.653046 254.799210,166.627365 256.297455,166.636948 
	C258.068848,166.648270 259.734802,166.297165 260.366394,164.431030 
	C261.067322,162.360107 259.383698,161.474258 258.025787,160.530273 
	C253.106003,157.110184 248.172821,153.709351 242.657898,149.889954 
z"/>
</svg>