<svg version="1.1" id="Layer_1" xmlns="http://www.w3.org/2000/svg" xmlns:xlink="http://www.w3.org/1999/xlink" x="0px" y="0px"
	 width="100%" viewBox="0 0 320 240" enable-background="new 0 0 320 240" xml:space="preserve">
<path fill="#fff" opacity="1.000000" stroke="none" 
	d="
M100.219925,202.835327 
	C56.075787,166.688660 58.740360,101.549179 105.940048,71.271378 
	C155.000504,39.799919 221.509903,68.724815 229.277679,128.131241 
	C235.171356,173.204803 206.082733,211.421082 161.208740,218.438797 
	C138.911377,221.925827 118.627525,216.513931 100.219925,202.835327 
M171.378448,177.910507 
	C176.574203,174.884552 181.591919,171.620361 185.282700,166.740814 
	C186.769455,164.775192 186.832077,162.779480 184.903473,160.944534 
	C182.924835,159.061966 181.047409,159.393860 179.203369,161.112549 
	C178.474045,161.792313 177.792755,162.523575 177.064240,163.204239 
	C160.655823,178.534454 138.247101,178.456039 121.956940,163.021866 
	C121.112846,162.222122 120.244522,161.444504 119.348076,160.704300 
	C117.876465,159.489197 116.343849,159.308731 114.874695,160.687332 
	C113.348396,162.119553 112.092224,163.758453 113.327492,165.924820 
	C114.056328,167.203049 115.044365,168.380402 116.096565,169.420242 
	C131.080811,184.228546 151.596039,187.543823 171.378448,177.910507 
M132.093277,129.429108 
	C134.598312,125.250214 134.525452,121.060440 131.212997,117.521431 
	C128.760834,114.901588 125.513779,113.558754 121.745491,115.128525 
	C118.066978,116.660904 115.684921,119.332283 115.431427,123.310020 
	C115.165840,127.477318 117.148674,130.651779 120.919083,132.557220 
	C125.174271,134.707657 128.576599,133.023239 132.093277,129.429108 
M180.620926,116.889122 
	C176.915359,114.140350 173.082108,113.428078 169.258469,116.529602 
	C166.220825,118.993546 164.619537,122.171928 165.704254,126.170609 
	C166.806854,130.235306 169.579636,132.885330 173.676071,133.419662 
	C177.390244,133.904175 180.568558,132.123703 182.409683,128.846466 
	C184.647003,124.863968 184.313065,120.906723 180.620926,116.889122 
z"/>
</svg>