<svg version="1.1" id="Layer_1" xmlns="http://www.w3.org/2000/svg" xmlns:xlink="http://www.w3.org/1999/xlink" x="0px" y="0px"
	 width="100%" viewBox="0 0 272 240" enable-background="new 0 0 272 240" xml:space="preserve">
<path fill="#fff" opacity="1.000000" stroke="none" 
	d="
M216.274475,55.503731 
	C226.059860,63.323036 227.039413,75.242691 218.362961,84.090462 
	C203.662903,99.080811 188.640549,113.755257 173.743042,128.551804 
	C163.456924,138.768219 153.077927,148.892822 142.909348,159.224716 
	C140.355225,161.819870 138.601425,162.095047 135.987503,159.385696 
	C129.624969,152.790833 123.088799,146.360229 116.513519,139.975754 
	C114.344101,137.869293 114.392265,136.305557 116.525681,134.173615 
	C141.865433,108.851173 167.093933,83.417274 192.471405,58.132835 
	C198.901306,51.726494 207.217712,50.957802 216.274475,55.503731 
z"/>
<path fill="#fff" opacity="1.000000" stroke="none" 
	d="
M103.569695,213.261612 
	C86.791519,213.321213 70.470085,213.371689 54.148746,213.351425 
	C47.285400,213.342896 43.066051,209.586426 42.793644,203.438736 
	C42.522583,197.321533 46.505348,193.219360 53.269993,192.648285 
	C60.009445,192.079330 63.142780,188.215744 62.840115,180.688431 
	C62.362820,168.817963 66.304489,158.882187 75.349533,150.987946 
	C83.729012,143.674561 93.554810,141.759186 104.227356,142.904694 
	C106.732910,143.173630 108.899498,144.381134 110.739655,146.274643 
	C116.889908,152.603256 122.996376,158.987473 129.415207,165.036774 
	C132.880997,168.303009 134.089050,172.150787 134.235092,176.607132 
	C134.807816,194.084351 122.871407,210.145645 103.569695,213.261612 
z"/>
<path fill="#fff" opacity="1.000000" stroke="none" 
	d="
M101.064552,133.360413 
	C98.039101,133.687149 96.296310,132.289429 94.582542,130.566803 
	C82.964455,118.888611 71.237625,107.318108 59.667629,95.592720 
	C50.566730,86.369606 50.383091,75.462830 59.121281,65.865662 
	C62.903145,61.712036 66.350761,57.168079 71.783134,54.791672 
	C80.315483,51.059181 89.590736,52.509552 96.194382,59.105930 
	C109.025818,71.923233 121.720825,84.877304 134.580292,97.666183 
	C136.993988,100.066628 137.177399,101.757584 134.646317,104.210205 
	C125.565071,113.009865 116.617798,121.948845 107.692291,130.907303 
	C105.913872,132.692276 104.005676,133.678101 101.064552,133.360413 
z"/>
<path fill="#fff" opacity="1.000000" stroke="none" 
	d="
M208.993073,186.183594 
	C210.579880,191.677658 212.121277,196.767029 213.491913,201.902008 
	C215.541763,209.581711 210.365677,214.961823 202.700027,212.885452 
	C192.131516,210.022812 181.656387,206.816345 171.132233,203.788437 
	C167.673141,202.793213 164.881744,200.824677 162.354691,198.315796 
	C156.808517,192.809540 151.175735,187.390610 145.591324,181.922729 
	C141.621414,178.035660 141.448425,173.185867 145.327545,169.262619 
	C154.329742,160.157974 163.469513,151.188873 172.431137,142.044861 
	C174.865326,139.561127 176.619110,139.658936 179.012543,142.111649 
	C185.748169,149.014099 192.667496,155.737595 199.533539,162.512253 
	C202.080750,165.025528 203.797791,167.970352 204.735947,171.439835 
	C206.035980,176.247543 207.485641,181.014771 208.993073,186.183594 
z"/>
</svg>