<svg version="1.1" id="Layer_1" xmlns="http://www.w3.org/2000/svg" xmlns:xlink="http://www.w3.org/1999/xlink" x="0px" y="0px"
	 width="100%" viewBox="0 0 352 176" enable-background="new 0 0 352 176" xml:space="preserve">
<path fill="#fff" opacity="1.000000" stroke="none" 
	d="
M167.297607,55.537682 
	C170.505157,57.933990 173.387070,60.151440 176.579361,62.607700 
	C182.325363,57.459778 188.480240,53.025021 196.243332,51.477108 
	C209.066071,48.920330 220.413589,51.826126 229.803802,60.960693 
	C241.239639,72.085228 250.651321,72.800446 263.226532,63.013912 
	C269.190613,58.372440 276.536255,60.726864 277.066223,67.941322 
	C278.374420,85.749268 276.186493,102.875389 264.961365,117.716995 
	C245.288330,143.728241 207.484619,149.279694 180.644928,129.867096 
	C177.429535,127.541466 175.522278,127.795395 172.485489,129.986526 
	C134.731903,157.226868 82.281143,134.375839 76.494003,88.374718 
	C75.718582,82.211090 75.856895,76.090614 75.745453,69.944038 
	C75.677063,66.172188 76.961868,62.925278 80.543060,61.318840 
	C84.048569,59.746353 87.243065,60.727936 90.231979,63.173618 
	C101.856964,72.685768 112.247040,72.036499 122.823669,61.289982 
	C134.348022,49.580521 151.281174,47.305611 167.297607,55.537682 
z"/>
</svg>