<svg version="1.1" id="Layer_1" xmlns="http://www.w3.org/2000/svg" xmlns:xlink="http://www.w3.org/1999/xlink" x="0px" y="0px"
	 width="100%" viewBox="0 0 256 224" enable-background="new 0 0 256 224" xml:space="preserve">
<path fill="#fff" opacity="1.000000" stroke="none" 
	d="
M83.006882,192.356476 
	C79.176498,192.351501 75.843613,192.393402 72.512657,192.331161 
	C65.727341,192.204376 61.499969,188.087921 61.838360,181.263855 
	C63.347343,150.833206 86.077942,132.152649 111.301163,131.703308 
	C125.124664,131.457031 138.956238,131.632050 152.784042,131.666885 
	C180.158615,131.735855 202.444534,153.472488 203.225143,180.826324 
	C203.432968,188.108749 199.399948,192.316528 191.962509,192.324310 
	C155.810120,192.362122 119.657669,192.350403 83.006882,192.356476 
z"/>
<path fill="#fff" opacity="1.000000" stroke="none" 
	d="
M93.676689,59.978630 
	C99.098000,43.690071 110.276878,34.139870 126.624405,31.983452 
	C142.722061,29.859993 156.568451,35.090069 166.159470,48.947845 
	C183.901855,74.583237 170.241409,110.602654 140.033905,116.640221 
	C115.477608,121.548279 93.341904,104.648651 91.800583,78.160149 
	C91.450989,72.152184 91.894150,66.193619 93.676689,59.978630 
M123.651947,66.676254 
	C122.013916,66.897087 120.379616,67.274246 118.737244,67.313522 
	C107.665688,67.578316 107.665131,67.555122 108.291321,78.739548 
	C109.280319,96.404442 128.612869,106.917038 144.281204,98.444641 
	C157.413757,91.343422 158.294632,76.406303 155.733566,65.277557 
	C155.425034,63.936867 154.733643,62.641293 153.206223,62.508427 
	C148.041183,62.059143 143.754349,59.671532 139.567947,56.192894 
	C135.269348,60.922947 130.786987,65.116943 123.651947,66.676254 
z"/>
</svg>