<svg fill="white" xmlns="http://www.w3.org/2000/svg" version="1.1" viewBox="-5.0 -10.0 110.0 135.0">
 <path d="m66.801 86.398c-2.6016 0-5.1992-1-7.1016-2.8984-1.3008-1.3008-3.3984-3-6-4.1992-3.1016-0.80078-4.5-0.39844-7.8008 0.60156l-0.29688 0.097656c-5.8984 1.6992-7.6016-0.30078-8.1016-1.1992-0.60156-1.1992-0.19922-2.6992 1.1016-3.6016 2.1992-1.6016 8.6992-2.1016 14-0.30078 0.89844 0.30078 1.6992 0.60156 2.3984 1 0 0 0.10156 0 0.10156 0.10156 3.1016 1.5 5.5 3.3984 7.1016 4.8984 1.3984 1.3984 3.3984 2.1016 5.3984 1.8008 1.8984-0.19922 3.5-1.3008 4.5-2.8984 0.10156-0.10156 0.10156-0.19922 0.19922-0.30078 3.6992-6.5-2-12.898-2.1016-13-0.69922-0.69922-0.60156-1.8984 0.10156-2.6016 0.69922-0.69922 1.8984-0.60156 2.6016 0.10156 0.30078 0.30078 7.5 8.5 2.5 17.199-0.10156 0.19922-0.19922 0.30078-0.30078 0.39844-1.6016 2.5-4.1992 4.1992-7.1992 4.6016-0.20312 0.19922-0.70312 0.19922-1.1016 0.19922zm-18.402 7v-0.39844c0.39844-3.5-1.6992-6.8008-5-7.6992l-7.3008-1.8984c-4.3008-1.1016-7.6992-4.3984-9.1016-8.8984-1.5-4.8008-0.5-9.8984 2.6992-13.602 8.8008-10.102 17.801-23.199 27-38.898 2.7031-4.4023 3.3047-10.004 1.7031-15.703-0.30078-1-1.3008-1.5-2.3008-1.3008-1 0.30078-1.5 1.3008-1.3008 2.3008 1.3008 4.6016 0.89844 9.3008-1.1992 12.898-9 15.5-18 28.398-26.602 38.301-4 4.6992-5.3008 11.102-3.5 17.102 1.8008 5.6992 6.1016 9.8984 11.602 11.398l7.3008 1.8984c1.5 0.39844 2.5 2 2.3008 3.6992v0.39844c-0.10156 1 0.60156 1.8984 1.6016 2h0.19922c1 0.003906 1.8008-0.69531 1.8984-1.5977z"/>
</svg>