<svg fill="white" xmlns="http://www.w3.org/2000/svg" xmlns:xlink="http://www.w3.org/1999/xlink" version="1.1" baseProfile="basic" x="0px" y="0px" viewBox="0 0 90 112.5" xml:space="preserve"><path d="M76.184,64.116l-1.648-2.611c-0.015-0.024-0.041-0.036-0.058-0.058c-0.047-0.061-0.099-0.114-0.161-0.161  c-0.039-0.03-0.075-0.057-0.118-0.08c-0.065-0.035-0.135-0.056-0.209-0.074c-0.035-0.009-0.064-0.031-0.099-0.035  c-0.017-0.002-0.034,0.006-0.051,0.005c-0.019-0.001-0.036-0.011-0.056-0.011c-0.06,0-0.112,0.023-0.169,0.034  c-0.048,0.01-0.096,0.011-0.142,0.029c-0.096,0.036-0.179,0.091-0.256,0.156c-0.015,0.013-0.036,0.017-0.051,0.031l-0.011,0.011  c0,0,0,0,0,0l-2.074,2.004c-0.353,0.341-0.363,0.905-0.023,1.257c0.342,0.354,0.905,0.362,1.257,0.023l0.374-0.361  c-0.408,2.501-1.405,5.429-2.833,7.333c-0.294,0.393-0.215,0.951,0.177,1.245c0.161,0.12,0.347,0.178,0.533,0.178  c0.27,0,0.537-0.122,0.712-0.355c1.623-2.163,2.691-5.312,3.144-8.018l0.258,0.409c0.169,0.268,0.457,0.415,0.753,0.415  c0.162,0,0.326-0.044,0.473-0.137C76.322,65.08,76.446,64.531,76.184,64.116z"/><path d="M20.143,71.606c-1.429-1.904-2.425-4.832-2.833-7.333l0.373,0.361c0.354,0.341,0.916,0.332,1.257-0.023  c0.341-0.352,0.331-0.916-0.022-1.257l-2.086-2.015c-0.017-0.016-0.04-0.021-0.058-0.036c-0.075-0.062-0.154-0.116-0.247-0.151  c-0.048-0.018-0.097-0.02-0.147-0.03c-0.056-0.011-0.107-0.033-0.166-0.033c-0.02,0-0.036,0.01-0.056,0.011  c-0.017,0.001-0.033-0.007-0.051-0.005c-0.036,0.004-0.065,0.027-0.099,0.035c-0.074,0.018-0.144,0.039-0.209,0.075  c-0.043,0.023-0.08,0.05-0.119,0.08c-0.061,0.047-0.113,0.099-0.16,0.16c-0.017,0.022-0.043,0.035-0.058,0.058l-1.648,2.611  c-0.262,0.415-0.138,0.964,0.277,1.226c0.147,0.093,0.311,0.137,0.474,0.137c0.295,0,0.584-0.147,0.753-0.415l0.258-0.408  c0.453,2.706,1.521,5.855,3.144,8.018c0.174,0.233,0.441,0.355,0.712,0.355c0.185,0,0.373-0.058,0.533-0.178  C20.359,72.556,20.438,71.999,20.143,71.606z"/><path d="M59.168,45.76c-1.016-0.146-1.93-0.349-2.822-0.449c-0.888-0.111-1.734-0.138-2.557-0.047  c-0.823,0.088-1.627,0.303-2.442,0.637c-0.823,0.324-1.634,0.774-2.555,1.228c0.372-0.956,1.018-1.779,1.845-2.432  c0.827-0.649,1.87-1.089,2.953-1.199c1.083-0.121,2.173,0.068,3.127,0.47C57.671,44.38,58.515,44.969,59.168,45.76z"/><path d="M40.704,47.129c-0.92-0.455-1.731-0.907-2.554-1.23c-0.815-0.335-1.62-0.55-2.444-0.635  c-0.823-0.089-1.668-0.062-2.556,0.049c-0.892,0.101-1.805,0.303-2.823,0.447c0.652-0.792,1.496-1.383,2.45-1.794  c0.954-0.402,2.045-0.591,3.127-0.468c1.083,0.113,2.126,0.553,2.952,1.201C39.684,45.352,40.33,46.174,40.704,47.129z"/><path d="M46.355,53.23c0.567,0.991,0.994,1.976,1.423,2.952c0.419,0.978,0.818,1.95,1.201,2.929l0.003,0.007  c0.013,0.033,0.024,0.07,0.033,0.104c0.098,0.399,0.093,1.006-0.247,1.468c-0.337,0.458-0.743,0.624-1.073,0.728  c-0.676,0.199-1.253,0.183-1.819,0.143c-1.122-0.108-2.166-0.396-3.173-0.874c1.084-0.252,2.143-0.338,3.125-0.513  c0.482-0.081,0.969-0.184,1.289-0.331c0.158-0.072,0.251-0.156,0.208-0.145c-0.032,0.026-0.019,0.068-0.034-0.043l0.036,0.111  c-0.411-1.027-0.715-2.098-0.897-3.193C46.259,55.477,46.186,54.36,46.355,53.23z"/><path d="M35.967,66.403c1.469,0.268,2.864,0.555,4.256,0.748c1.39,0.194,2.768,0.291,4.146,0.293  c1.377-0.006,2.755-0.101,4.145-0.296c1.391-0.194,2.786-0.48,4.256-0.746c-1.163,0.94-2.51,1.627-3.938,2.096  c-1.428,0.47-2.944,0.727-4.463,0.723c-1.519,0.001-3.035-0.254-4.462-0.725C38.478,68.026,37.13,67.34,35.967,66.403z"/><path d="M71.077,44.253c-0.228-0.048-0.578-0.063-0.993,0.094c2.747-10.323,1.346-20.052-4.082-27.683  C60.962,9.579,52.72,5,45.006,5C37.292,5,29.05,9.579,24.01,16.664c-5.429,7.633-6.83,17.364-4.081,27.689  c-0.421-0.163-0.776-0.149-1.006-0.1c-0.941,0.197-1.87,1.294-1.655,3.806c0.377,3.325,1.48,4.837,2.876,6.751  c0.509,0.698,1.083,1.49,1.685,2.457c0.635,4.667,1.773,10.479,3.709,13.482c4.262,6.529,8.716,10.723,13.612,12.823  C41.387,84.547,43.248,85,45.006,85c2.145,0,3.832-0.546,5.852-1.425c4.901-2.102,9.355-6.297,13.619-12.829  c1.941-3.011,3.079-8.849,3.712-13.516c0.5-0.864,1.041-1.614,1.566-2.336c1.342-1.848,2.609-3.593,2.979-6.858  C72.947,45.547,72.017,44.45,71.077,44.253z M25.459,17.695c4.717-6.632,12.39-10.917,19.547-10.917s14.83,4.285,19.547,10.917  c4.335,6.094,5.934,13.64,4.734,21.77c-0.046-0.612-0.113-1.174-0.209-1.652c-2.556-12.662-11.329-19.924-24.072-19.924  c-12.93,0-21.479,7.076-24.072,19.925c-0.096,0.477-0.163,1.038-0.209,1.649C19.525,31.333,21.124,23.788,25.459,17.695z   M19.037,47.885c-0.113-1.321,0.202-1.845,0.223-1.889c0.167,0.021,0.945,0.564,1.721,2.819c0.073,0.844,0.131,1.403,0.14,1.48  c0.01,0.169,0.087,1.4,0.266,3.201C20.16,51.808,19.342,50.574,19.037,47.885z M62.985,69.778  c-4.063,6.226-8.259,10.204-12.832,12.165c-1.862,0.811-3.301,1.28-5.147,1.28c-1.506,0-3.141-0.406-5.151-1.281  c-4.569-1.959-8.765-5.938-12.826-12.159c-3.223-4.998-4.126-19.449-4.138-19.635c-0.009-0.085-0.898-8.569-0.215-11.984  c2.408-11.928,10.338-18.497,22.329-18.497c11.992,0,19.922,6.569,22.329,18.496c0.684,3.415-0.206,11.9-0.218,12.026  C67.109,50.333,66.207,64.781,62.985,69.778z M70.966,47.86c-0.288,2.535-1.218,3.999-2.332,5.547  c0.171-1.738,0.244-2.917,0.253-3.073c0.009-0.089,0.071-0.675,0.147-1.558c0.771-2.219,1.539-2.761,1.642-2.797  C70.761,46.039,71.076,46.563,70.966,47.86z"/><path d="M61.4,42.109c-1.026-0.406-2.075-0.698-3.139-0.81c-1.058-0.127-2.118-0.113-3.147,0.03  c-1.039,0.147-1.98,0.586-2.972,0.808c-1.003,0.24-1.991,0.543-3.161,0.793l-0.105-0.143c0.608-1.058,1.587-1.805,2.658-2.321  c1.081-0.534,2.322-0.556,3.485-0.557c1.173-0.005,2.337,0.172,3.434,0.52c1.092,0.363,2.129,0.859,3.034,1.523L61.4,42.109z"/><path d="M28.373,41.953c0.905-0.664,1.942-1.16,3.034-1.523c1.097-0.348,2.261-0.526,3.434-0.52  c1.163,0.001,2.404,0.023,3.485,0.557c1.071,0.515,2.05,1.263,2.658,2.321l-0.105,0.143c-1.17-0.25-2.158-0.553-3.161-0.793  c-0.992-0.222-1.933-0.661-2.972-0.808c-1.029-0.144-2.089-0.158-3.147-0.03c-1.063,0.112-2.113,0.404-3.139,0.81L28.373,41.953z"/><path d="M50.128,77.115c-0.378,0-0.727-0.241-0.847-0.621c-0.148-0.468,0.11-0.967,0.578-1.115c0.269-0.085,0.533-0.177,0.792-0.275  c0.461-0.176,0.973,0.056,1.147,0.515c0.174,0.459-0.056,0.973-0.515,1.147c-0.29,0.11-0.585,0.213-0.886,0.308  C50.307,77.102,50.216,77.115,50.128,77.115z M54.124,75.212c-0.288,0-0.57-0.14-0.741-0.398c-0.272-0.409-0.16-0.961,0.249-1.232  c0.233-0.155,0.46-0.316,0.683-0.484c0.393-0.293,0.951-0.216,1.245,0.177c0.294,0.392,0.215,0.95-0.177,1.245  c-0.251,0.188-0.506,0.369-0.768,0.543C54.464,75.164,54.293,75.212,54.124,75.212z M57.429,72.265c-0.205,0-0.411-0.07-0.578-0.214  c-0.373-0.319-0.417-0.881-0.097-1.253c0.182-0.213,0.36-0.431,0.534-0.655c0.3-0.388,0.86-0.459,1.247-0.158  c0.388,0.3,0.459,0.859,0.158,1.247c-0.191,0.247-0.386,0.487-0.588,0.722C57.928,72.16,57.679,72.265,57.429,72.265z   M59.907,68.589c-0.141,0-0.284-0.033-0.417-0.104c-0.433-0.23-0.598-0.768-0.367-1.202c0.133-0.25,0.262-0.504,0.388-0.762  c0.214-0.442,0.746-0.627,1.188-0.411c0.442,0.214,0.626,0.746,0.411,1.188c-0.135,0.279-0.274,0.552-0.418,0.821  C60.533,68.418,60.226,68.589,59.907,68.589z M61.661,64.511c-0.095,0-0.194-0.016-0.289-0.049  c-0.464-0.159-0.711-0.665-0.551-1.129c0.093-0.271,0.183-0.545,0.272-0.823c0.148-0.468,0.651-0.728,1.115-0.579  c0.469,0.148,0.727,0.648,0.579,1.115c-0.092,0.292-0.188,0.58-0.286,0.865C62.374,64.28,62.03,64.511,61.661,64.511z   M62.861,60.234c-0.064,0-0.129-0.007-0.194-0.022c-0.479-0.107-0.781-0.582-0.674-1.061c0.063-0.282,0.124-0.567,0.183-0.854  c0.098-0.481,0.57-0.791,1.049-0.693c0.481,0.098,0.792,0.568,0.693,1.049c-0.061,0.298-0.124,0.593-0.19,0.885  C63.635,59.953,63.268,60.234,62.861,60.234z M63.65,55.862c-0.042,0-0.084-0.003-0.127-0.009c-0.486-0.069-0.824-0.52-0.754-1.006  c0.042-0.286,0.081-0.576,0.117-0.866c0.061-0.487,0.506-0.826,0.993-0.771c0.487,0.062,0.832,0.506,0.771,0.993  c-0.038,0.301-0.079,0.599-0.121,0.896C64.466,55.543,64.086,55.862,63.65,55.862z"/><path d="M39.873,77.115c-0.089,0-0.18-0.013-0.269-0.042c-0.301-0.095-0.596-0.198-0.885-0.308c-0.459-0.174-0.69-0.688-0.516-1.147  c0.174-0.459,0.69-0.691,1.147-0.515c0.259,0.098,0.523,0.19,0.792,0.275c0.468,0.148,0.727,0.648,0.579,1.115  C40.6,76.874,40.25,77.115,39.873,77.115z M35.875,75.212c-0.169,0-0.34-0.048-0.491-0.148c-0.262-0.174-0.517-0.355-0.768-0.543  c-0.392-0.295-0.471-0.852-0.176-1.245c0.296-0.391,0.852-0.471,1.245-0.175c0.223,0.168,0.451,0.328,0.683,0.483  c0.409,0.272,0.52,0.824,0.249,1.233C36.446,75.072,36.163,75.212,35.875,75.212z M32.572,72.266c-0.25,0-0.5-0.105-0.675-0.311  c-0.201-0.235-0.398-0.475-0.589-0.722c-0.301-0.388-0.23-0.946,0.158-1.247c0.387-0.3,0.945-0.232,1.247,0.158  c0.173,0.223,0.351,0.442,0.533,0.655c0.319,0.372,0.276,0.934-0.097,1.253C32.982,72.195,32.776,72.266,32.572,72.266z   M30.092,68.59c-0.318,0-0.626-0.171-0.786-0.471c-0.143-0.269-0.283-0.543-0.418-0.82c-0.215-0.441-0.032-0.973,0.41-1.188  c0.441-0.214,0.974-0.03,1.188,0.411c0.126,0.259,0.256,0.513,0.389,0.763c0.23,0.434,0.066,0.972-0.367,1.202  C30.376,68.557,30.233,68.59,30.092,68.59z M28.339,64.511c-0.368,0-0.713-0.231-0.84-0.599c-0.098-0.285-0.194-0.573-0.286-0.865  c-0.148-0.468,0.111-0.967,0.579-1.115s0.968,0.11,1.116,0.579c0.088,0.277,0.178,0.551,0.272,0.822  c0.16,0.464-0.086,0.97-0.55,1.13C28.533,64.496,28.435,64.511,28.339,64.511z M27.14,60.234c-0.407,0-0.774-0.281-0.867-0.695  c-0.065-0.292-0.128-0.587-0.19-0.884c-0.099-0.481,0.211-0.951,0.691-1.05c0.484-0.097,0.951,0.21,1.05,0.691  c0.059,0.288,0.12,0.573,0.184,0.856c0.107,0.478-0.194,0.954-0.674,1.061C27.269,60.227,27.204,60.234,27.14,60.234z M26.35,55.862  c-0.436,0-0.816-0.32-0.879-0.765c-0.042-0.295-0.082-0.593-0.12-0.892c-0.062-0.487,0.283-0.932,0.77-0.995  c0.483-0.053,0.932,0.281,0.994,0.769c0.037,0.293,0.076,0.582,0.117,0.87c0.069,0.486-0.27,0.936-0.756,1.004  C26.433,55.859,26.391,55.862,26.35,55.862z"/></svg>