<svg fill="white" xmlns="http://www.w3.org/2000/svg" xmlns:xlink="http://www.w3.org/1999/xlink" version="1.1" x="0px" y="0px" viewBox="0 0 64 80" enable-background="new 0 0 64 64" xml:space="preserve"><g><path d="M37.496,51.994h1c0.553,0,1-0.447,1-1s-0.447-1-1-1h-1c-0.553,0-1,0.447-1,1S36.943,51.994,37.496,51.994z"/><path d="M41.498,51.994c0.5,0,0.995-0.125,1.434-0.362c0.486-0.264,0.667-0.87,0.404-1.355c-0.264-0.486-0.867-0.665-1.355-0.404   c-0.149,0.081-0.313,0.122-0.484,0.122c-0.553,0-0.999,0.447-0.999,1S40.945,51.994,41.498,51.994z"/><path d="M33.496,51.994h1c0.553,0,1-0.447,1-1s-0.447-1-1-1h-1c-0.553,0-1,0.447-1,1S32.943,51.994,33.496,51.994z"/><path d="M43.502,41.141c0.553,0,1-0.447,1-1v-1c0-0.553-0.447-1-1-1s-1,0.447-1,1v1C42.502,40.693,42.949,41.141,43.502,41.141z"/><path d="M43.501,45.141c0.553,0,1-0.447,1-1v-1c0-0.553-0.447-1-1-1s-1,0.447-1,1v1C42.501,44.693,42.948,45.141,43.501,45.141z"/><path d="M43.5,49.141c0.553,0,1-0.447,1-1v-1c0-0.553-0.447-1-1-1s-1,0.447-1,1v1C42.5,48.693,42.947,49.141,43.5,49.141z"/><path d="M4.728,39.315c0.012,0.035,0.019,0.069,0.034,0.103c1.333,3.898,3.686,7.325,6.74,9.965v13.621c0,0.553,0.447,1,1,1   s1-0.447,1-1V50.933c3.674,2.53,8.115,4.021,12.898,4.041c0.034,0.004,0.064,0.021,0.1,0.021h5.996v7.994c0,0.553,0.447,1,1,1   s1-0.447,1-1v-7.994h7.002c3.31,0,6.002-2.692,6.002-6.002v-9.001h5.004c0.001,0,0.001,0,0.002,0   c0.085-0.001,0.171-0.011,0.256-0.034c0.022-0.006,0.039-0.022,0.061-0.03c0.068-0.022,0.127-0.056,0.188-0.092   c0.052-0.032,0.104-0.061,0.148-0.101c0.05-0.044,0.088-0.094,0.128-0.146c0.038-0.05,0.075-0.098,0.103-0.153   c0.028-0.056,0.044-0.116,0.062-0.178c0.019-0.065,0.035-0.128,0.04-0.196c0.002-0.024,0.014-0.045,0.014-0.069   c0-0.046-0.021-0.086-0.026-0.131c-0.006-0.042,0.004-0.084-0.008-0.127l-3.666-13.737h0.712c0.553,0,1-0.447,1-1   c0-13.233-10.767-24-24-24c-13.232,0-23.999,10.766-24,23.998l0,0L3.5,31.983c0,0.055,0.022,0.102,0.03,0.153   C3.545,34.646,3.967,37.058,4.728,39.315z M51.202,37.991h-4.7h-0.001H46.5c-0.553,0-1,0.447-1,1v10.001   c0,2.207-1.795,4.002-4.002,4.002H26.587c-0.03-0.003-0.056-0.018-0.087-0.018c-8.79,0-16.322-5.441-19.436-13.127   c4.22-0.736,7.459-4.443,7.459-8.852c0-0.025-0.013-0.047-0.015-0.071c0.038-1.621,1.361-2.93,2.991-2.93   c1.655,0,3.002,1.346,3.002,2.999c0,0.031,0.015,0.057,0.018,0.087v3.915c0,0.014,0.007,0.025,0.008,0.039   c0.003,0.071,0.023,0.137,0.041,0.205c0.016,0.059,0.023,0.119,0.049,0.173c0.025,0.057,0.066,0.102,0.103,0.152   c0.038,0.054,0.071,0.11,0.12,0.156c0.04,0.038,0.092,0.063,0.139,0.094c0.063,0.041,0.121,0.084,0.192,0.11   c0.012,0.005,0.02,0.015,0.032,0.019l5.992,2.002C27.3,37.983,27.407,38,27.512,38c0.122,0,0.239-0.028,0.352-0.071   c0.036-0.014,0.067-0.033,0.103-0.051c0.071-0.037,0.137-0.08,0.197-0.134c0.031-0.027,0.061-0.054,0.088-0.085   c0.053-0.059,0.095-0.125,0.132-0.196c0.021-0.036,0.042-0.069,0.058-0.108c0.005-0.014,0.015-0.024,0.02-0.038   c0.018-0.052,0.011-0.104,0.02-0.155c0.009-0.055,0.032-0.104,0.032-0.161l0.004-12.003l19.219-0.001L51.202,37.991z M27.516,1.996   c11.796,0,21.449,9.332,21.975,21l-21.965,0.001c-0.004,0-0.006-0.002-0.01-0.002c-0.552,0-1,0.447-1,1l-0.004,11.617l-3.992-1.334   v-3.282c0-0.063-0.024-0.116-0.035-0.175c-0.095-2.675-2.286-4.824-4.984-4.824c-2.756,0-4.998,2.242-4.998,4.999   c0,0.03,0.015,0.056,0.018,0.086c-0.043,3.505-2.711,6.428-6.124,6.854c-0.558-1.883-0.868-3.871-0.868-5.932   c0-0.048-0.021-0.089-0.027-0.135l0.016-7.872v-0.001v-0.001C5.516,11.865,15.385,1.996,27.516,1.996z"/><path d="M52.209,43.702c0.391-0.391,0.391-1.023,0-1.414s-1.023-0.391-1.414,0l-1.999,1.999c-0.093,0.092-0.166,0.203-0.217,0.326   c-0.051,0.122-0.077,0.252-0.077,0.382c0,0.131,0.026,0.261,0.077,0.383s0.124,0.233,0.217,0.325l1.948,1.946   c0.195,0.195,0.451,0.293,0.707,0.293s0.512-0.098,0.707-0.293c0.391-0.391,0.391-1.024,0-1.414l-0.24-0.24H59.5   c0.553,0,1-0.447,1-1s-0.447-1-1-1h-7.584L52.209,43.702z"/><path d="M60.5,53.023c0-0.553-0.447-1-1-1h-7.584l0.293-0.293c0.391-0.391,0.391-1.023,0-1.414s-1.023-0.391-1.414,0l-1.999,1.999   c-0.093,0.092-0.166,0.203-0.217,0.326c-0.051,0.122-0.077,0.252-0.077,0.382c0,0.131,0.026,0.261,0.077,0.383   s0.124,0.233,0.217,0.325l1.948,1.946c0.195,0.195,0.451,0.293,0.707,0.293s0.512-0.098,0.707-0.293   c0.391-0.391,0.391-1.024,0-1.414l-0.24-0.24H59.5C60.053,54.023,60.5,53.576,60.5,53.023z"/></g></svg>