<svg fill="white" xmlns="http://www.w3.org/2000/svg" xmlns:xlink="http://www.w3.org/1999/xlink" version="1.1" x="0px" y="0px" viewBox="0 0 100 125" enable-background="new 0 0 100 100" xml:space="preserve"><g><path d="M36.3,42.366c-3.552-1.562-7.332-2.358-11.24-2.358s-7.689,0.797-11.238,2.358c-3.428,1.512-6.475,3.663-9.057,6.398   c-0.656,0.691-0.656,1.779,0,2.474c2.582,2.735,5.629,4.89,9.057,6.397c3.549,1.562,7.33,2.356,11.238,2.356   s7.688-0.794,11.24-2.356c3.426-1.51,6.473-3.662,9.055-6.397c0.656-0.692,0.656-1.781,0-2.474   C42.773,46.029,39.726,43.878,36.3,42.366z M19.156,55.671c-3.903-0.966-7.498-2.893-10.516-5.668   c3.018-2.775,6.611-4.703,10.516-5.67c-1.412,1.473-2.28,3.467-2.28,5.67C16.873,52.203,17.743,54.2,19.156,55.671z M30.964,55.673   c1.412-1.473,2.284-3.47,2.284-5.67c0-2.203-0.872-4.197-2.284-5.67c3.903,0.967,7.5,2.895,10.516,5.67   C38.464,52.778,34.868,54.705,30.964,55.673z"/><path d="M95.235,48.765c-2.582-2.735-5.629-4.889-9.057-6.398c-3.55-1.562-7.33-2.358-11.24-2.358   c-3.904,0-7.688,0.797-11.236,2.358c-3.43,1.512-6.475,3.663-9.058,6.398c-0.656,0.691-0.656,1.779,0,2.474   c2.583,2.735,5.628,4.89,9.058,6.397c3.55,1.562,7.33,2.356,11.236,2.356c3.91,0,7.69-0.794,11.24-2.356   c3.428-1.51,6.475-3.662,9.057-6.397C95.891,50.546,95.891,49.457,95.235,48.765z M69.036,55.671   c-3.903-0.966-7.5-2.893-10.514-5.668c3.016-2.775,6.609-4.703,10.514-5.67c-1.412,1.473-2.282,3.467-2.282,5.67   C66.753,52.203,67.624,54.2,69.036,55.671z M80.844,55.673c1.411-1.473,2.282-3.47,2.282-5.67c0-2.203-0.871-4.197-2.282-5.67   c3.903,0.967,7.497,2.895,10.514,5.67C88.342,52.778,84.749,54.705,80.844,55.673z"/></g></svg>