<svg fill="white" xmlns="http://www.w3.org/2000/svg" viewBox="0 0 512 640" width="200px" height="250px" x="0px" y="0px"><defs><style>
    </style></defs><path class="cls-1" d="M395.22,119.85c2.08-12.29-4.08-21.11-6.45-32.54-2.1-9.81-5.91-19.78-10.67-31.8-1.22-3.08-4.71-4.59-7.79-3.37-3.08,1.22-4.59,4.71-3.37,7.79,4.55,11.49,8.18,20.99,10.09,29.9,1,4.66,2.38,8.7,3.6,12.27,2.03,5.94,3.63,10.63,2.75,15.73-.96,5.62-2.84,15.64-4.24,23.04-4.03,19.94,7.85,34.57,19.91,48.22,4.96,5.78,8.87,10.34,9.34,12.45.27,1.22-3.27,5.04-4.43,6.3-8.25,8.92-27.28,29.46-8.12,52.09-2.63,5.25-5.74,10.28-6.84,19.23-15.26-.2-31.03-2.21-48.75-4.63-25.03-3.53-60.14-9.55-83.14-15.07,8.02-22.51,4.22-33.15,2.75-36.02-1.96-3.83-5.15-6.36-9.23-7.33-14.61-3.49-22.3,8.03-27.4,15.65-3.57,5.34-6.08,8.82-8.39,8.39-2.03-.38-4.81-9.31-6.15-13.61-2.13-6.82-4.54-14.55-8.93-20.09-8.6-12.22-29.94-9.47-36.33,4.02-4.58,9.41-3.05,23.35,4.83,43.88,5.2,13.55,6.46,23.37,8.06,35.81.99,7.7,2.11,16.44,4.34,27.56,6.15,30.77,37.81,37.57,60.93,42.53,18.39,3.39,27.62,8.56,45.93,17.81,26.81,13.31,54.79,28.38,80.79,26.29,23.19-2.29,25.91-16.21,25.51-29.52-.22-6.11,3.4-17.95,6.29-27.56,3.78-13.18,7.14-23.44,6.03-35.89-.54-7.1-2.17-13.26-3.51-18.27-.91-3.42-1.71-6.37-1.83-8.45-.43-7.45,2.44-12.96,4.75-17.38,2.04-3.9,4.83-9.25.74-13.61-9.06-9.65-10.92-18.9,6.45-37.66,12.85-13.22,8.24-20.22-4.61-34.71-23.84-26.98-18.4-29.17-12.95-61.42ZM302.24,280.66l-1.47,12.18c-6.68-1.41-13.19-2.87-19.51-4.38l1.15-11.41c6.36,1.22,13.05,2.44,19.82,3.61ZM332.81,285.56l-1.49,13.16c-6.14-1.07-12.41-2.23-18.75-3.48l1.52-12.59c6.38,1.05,12.64,2.02,18.72,2.91ZM364.12,289.56l-1.4,14.04c-6.21-.83-12.74-1.8-19.55-2.89l1.53-13.47c6.98.93,13.47,1.71,19.42,2.32ZM269.5,285.54c-6.35-1.65-12.23-3.3-17.56-4.94.18-3.47.62-6.83,1.26-9.77,3.7.97,9.17,2.21,17.39,3.88l-1.09,10.82ZM268.28,297.61l-1.19,11.75c-6.26-2-8.36-2.9-9.03-3.24-2.22-1.11-4.49-5.67-5.57-12.84,4.9,1.44,10.17,2.88,15.79,4.33ZM280.05,300.51c6.25,1.48,12.7,2.91,19.28,4.29l-1.62,13.45c-6.86-1.86-13.25-3.66-18.91-5.32l1.25-12.42ZM311.13,307.19c6.37,1.25,12.66,2.41,18.83,3.47l-1.76,15.52c-6.25-1.56-12.6-3.18-18.79-4.81l1.71-14.19ZM341.82,312.64c6.85,1.1,13.44,2.07,19.71,2.9l-1.8,18.04c-6.1-1.33-12.72-2.85-19.77-4.53l1.86-16.41ZM376.08,290.61c5.35.37,9.65.56,13.71.54,1.22,5.17,2.78,9.95,3.74,15.6-5.46-.32-11.83-.88-18.89-1.67l1.44-14.46ZM367.16,392.37c-30.17,2.78-74.53-27.91-104.66-39.21-5.17-1.85-11.58-3.22-18.36-4.68-22.07-4.74-47.08-10.1-51.68-33.15-2.14-10.71-3.24-19.23-4.2-26.74-1.63-12.71-3.04-23.69-8.76-38.58-8.29-22.37-9.56-35.69.24-38.71,19.77-7.34,14.11,37.9,32.92,40.61,10.25,1.93,15.97-6.64,20.57-13.52,5.67-8.48,8.76-12.04,14.64-10.64.57.14.93.35,1.33,1.12,2.46,4.75.03,18.73-5.54,32.16-2.52,6.19-3.91,14.98-3.81,24,.08,7.68,1.49,26.16,12.84,31.82.94.47,3.8,1.91,17.86,6.14,8.51,2.56,19.13,5.55,30.71,8.63,27.07,7.09,59.46,15.4,85.3,19.17-2.7,9.19-4.91,17.72-4.71,24.36.32,10.69-1.02,15.87-14.69,17.22ZM390.02,339.13c-4.56-.53-10.82-1.57-18.48-3.08l1.9-19.04c7.9.89,14.88,1.49,20.85,1.79-.4,6.45-2.09,12.61-4.27,20.33Z"/><path class="cls-1" d="M69.72,242.91c-1.57,2.92-.48,6.55,2.43,8.13,1.52.82,37.67,20.18,75.54,29.35,3.13.78,6.48-1.17,7.24-4.42.78-3.22-1.2-6.46-4.42-7.24-36.32-8.79-72.31-28.06-72.67-28.25-2.92-1.57-6.56-.48-8.13,2.43Z"/><path class="cls-1" d="M469.39,210.43c-78.57-93.68-18.35-77.36-51.77-157.53-2.01-5.12-3.92-9.97-5.43-14.92-.97-3.17-4.32-4.95-7.49-3.98-3.17.97-4.95,4.32-3.98,7.49,1.65,5.4,3.73,10.68,5.74,15.8,31.83,77.81-28.22,62.41,53.62,160.69,0,0,1.36,1.68,1.36,1.68,4.79,5.93,7.65,12.11,7.54,14.46-.09,1.3-2,5.65-4.33,9.3-4.25,6.61-14.1,15.43-24.73,19.49-4.05,1.57-9.86,3.56-12.07,9.65-2.16,6.07,1.16,11.5,3.35,15.09,4.22,6.91,6.19,12.97,6.02,18.5-.19,5.59-3.26,12.79-7.9,14.67-3.14,1.19-4.66,5.12-3.17,8.12,4.4,9.43,1.28,20.09-6.34,26.92-11.34,10.79-11.68,21.12-9.43,35.2.79,5.6,1.53,10.89.5,15.55-4.81,16.75-23.14,20.69-41.32,19.09-14.21-1.1-22.69-3.89-33.42-7.42-5.37-1.77-11.46-3.78-18.9-5.74-7.61-2.01-16.41-3.87-24.58-.4-7.35,3.13-11.94,9.54-15.8,16.01-7.47,12.53-13.55,25.91-18.07,39.75-.75,2.29-2.88,3.83-5.32,3.79l-193.11-1.64c-1.88-.02-3.55-.93-4.58-2.5-1.03-1.56-1.21-3.44-.49-5.16,10.72-25.76,17.82-52.55,20.55-77.49,3.35-19.82,9.43-56.55-28.41-99.61-2.19-2.49-5.98-2.73-8.47-.55-2.49,2.19-2.73,5.98-.55,8.47,34.33,39.16,28.74,70.77,25.51,90.21-2.59,23.87-9.4,49.58-19.71,74.35-2.25,5.38-1.67,11.51,1.54,16.38,3.22,4.88,8.64,7.83,14.49,7.89l193.11,1.64c7.67.08,14.46-4.77,16.83-12.07,4.25-13,9.96-25.56,16.97-37.32,3.26-5.46,6.24-9.43,10.2-11.12,4.67-1.98,10.87-.62,16.81.96,7.09,1.87,12.74,3.73,18.21,5.53,17.04,6.6,49.65,12.46,67.63,4.37,11.58-4.68,20.23-14.2,22.58-24.85,1.5-6.77.56-13.4-.34-19.81-1-7.12-1.87-13.26.67-18.26,2.42-4.63,7.52-8.35,10.73-12.91,6.16-8.4,8.03-19.44,5.22-29.35,13.34-11.23,13.12-31.28,2.56-47.47-.79-1.29-2.42-3.97-2.29-4.8.41-.7,3.18-1.76,4.51-2.26,17.92-7.04,34.71-22.82,37.31-39.7-.03-10.22-8.01-19.67-11.57-24.2Z"/><text x="0" y="527" fill="#000000" font-size="5px" font-weight="bold" font-family="'Helvetica Neue', Helvetica, Arial-Unicode, Arial, Sans-serif">Created by Fran Couto</text><text x="0" y="532" fill="#000000" font-size="5px" font-weight="bold" font-family="'Helvetica Neue', Helvetica, Arial-Unicode, Arial, Sans-serif">from the Noun Project</text></svg>