<?xml version="1.0" encoding="iso-8859-1"?>
<svg fill="#fff" height="800px" width="800px" version="1.1" id="Capa_1" xmlns="http://www.w3.org/2000/svg" xmlns:xlink="http://www.w3.org/1999/xlink" 
	 viewBox="0 0 305.817 305.817" xml:space="preserve">
<g>
	<path d="M219.891,19.792c-0.635-4.046-1.408-8.073-2.356-12.065l-1.081-4.552C216.011,1.314,214.35,0,212.437,0H93.382
		c-1.912,0-3.574,1.314-4.016,3.174L88.284,7.73c-0.948,3.991-1.721,8.016-2.356,12.062H219.891z"/>
	<path d="M84.296,34.792c-0.284,4.68-0.378,9.374-0.246,14.069l6.435,229.004c0.063,2.234,1.892,4.012,4.126,4.012h4.022v19.636
		c0,2.377,1.927,4.305,4.304,4.305h21.891c2.377,0,4.304-1.927,4.304-4.305v-19.636h2.986c2.161,0,3.957-1.667,4.117-3.823
		l14.152-190.765c0.097-1.315,1.193-2.332,2.512-2.332s2.414,1.017,2.512,2.332l14.152,190.765c0.16,2.155,1.955,3.823,4.117,3.823
		h3.953v19.636c0,2.377,1.927,4.305,4.304,4.305h21.891c2.377,0,4.304-1.927,4.304-4.305v-19.636h3.054
		c2.234,0,4.063-1.778,4.126-4.012l6.454-229.001c0.132-4.697,0.039-9.392-0.245-14.073H84.296z"/>
</g>
</svg>