<svg version="1.1" id="Layer_1" xmlns="http://www.w3.org/2000/svg" xmlns:xlink="http://www.w3.org/1999/xlink" x="0px" y="0px"
	 width="100%" viewBox="0 0 336 272" enable-background="new 0 0 336 272" xml:space="preserve">
<path fill="#fff" opacity="1.000000" stroke="none" 
	d="
M132.861877,73.780212 
	C158.001801,58.139584 202.453339,58.774742 224.307388,84.308838 
	C231.288025,92.464981 236.492462,101.397957 238.658951,111.897247 
	C240.047821,118.628036 242.991806,124.388794 247.437607,129.551971 
	C250.696274,133.336456 253.729019,137.317871 256.807220,141.254715 
	C260.526886,146.011978 261.387756,151.264099 258.657776,156.694397 
	C256.040802,161.899948 251.623138,164.759415 245.698135,164.270599 
	C241.068756,163.888672 240.111679,165.933182 240.141678,170.093491 
	C240.185898,176.225006 240.972153,182.415024 239.474838,188.507004 
	C237.089722,198.211014 229.604752,204.243118 219.718231,204.335434 
	C215.386749,204.375885 211.028793,204.643494 206.729584,204.270050 
	C201.815125,203.843170 199.383560,205.320404 200.218185,210.572693 
	C200.373001,211.546997 200.264374,212.569687 200.222397,213.567734 
	C199.923477,220.674561 196.311386,224.304947 189.241760,224.323456 
	C169.582016,224.374924 149.921967,224.369980 130.262177,224.328293 
	C122.778793,224.312424 118.997414,220.595337 118.807022,212.937637 
	C118.645569,206.443909 118.622047,199.938553 118.814392,193.446548 
	C119.000938,187.150833 116.975883,181.840363 113.243095,176.799271 
	C92.489349,148.771500 94.431335,111.544609 117.835556,85.867783 
	C122.130936,81.155319 127.095688,77.256165 132.861877,73.780212 
M200.888794,120.616394 
	C199.295776,128.984238 204.713150,135.388107 211.596970,133.147568 
	C215.888153,131.750870 218.660400,128.949509 218.728394,124.094093 
	C218.795914,119.271385 216.379715,116.309174 211.888229,114.956749 
	C206.889023,113.451424 203.672226,115.925163 200.888794,120.616394 
z"/>
</svg>